{
  "accessors": [
    {
      "bufferView": 2,
      "componentType": 5126,
      "count": 65532,
      "max": [
        0.9802649617195129,
        0.8857904076576233,
        0.20629221200942993
      ],
      "min": [
        -0.9802588224411011,
        -0.9804010391235352,
        -0.08510638028383255
      ],
      "type": "VEC3"
    },
    {
      "bufferView": 2,
      "byteOffset": 786384,
      "componentType": 5126,
      "count": 65532,
      "max": [
        0.9877544045448303,
        0.9816427230834961,
        1.0
      ],
      "min": [
        -0.98418790102005,
        -0.9594187140464783,
        -0.0739789679646492
      ],
      "type": "VEC3"
    },
    {
      "bufferView": 1,
      "componentType": 5126,
      "count": 65532,
      "max": [
        0.99018394947052,
        0.9393213391304016
      ],
      "min": [
        0.009743625298142433,
        0.007564470171928406
      ],
      "type": "VEC2"
    },
    {
      "bufferView": 0,
      "componentType": 5125,
      "count": 347910,
      "type": "SCALAR"
    },
    {
      "bufferView": 2,
      "byteOffset": 1572768,
      "componentType": 5126,
      "count": 65532,
      "max": [
        0.9802930951118469,
        0.9802024960517883,
        0.2983351945877075
      ],
      "min": [
        -0.9802485704421997,
        -0.9702465534210205,
        -0.07529143244028091
      ],
      "type": "VEC3"
    },
    {
      "bufferView": 2,
      "byteOffset": 2359152,
      "componentType": 5126,
      "count": 65532,
      "max": [
        0.9760984182357788,
        0.9656928777694702,
        1.0
      ],
      "min": [
        -0.9890972375869751,
        -0.9637150764465332,
        0.13492457568645477
      ],
      "type": "VEC3"
    },
    {
      "bufferView": 1,
      "byteOffset": 524256,
      "componentType": 5126,
      "count": 65532,
      "max": [
        0.994218647480011,
        0.9901175498962402
      ],
      "min": [
        0.00933340098708868,
        0.014851485379040241
      ],
      "type": "VEC2"
    },
    {
      "bufferView": 0,
      "byteOffset": 1391640,
      "componentType": 5125,
      "count": 357762,
      "type": "SCALAR"
    },
    {
      "bufferView": 2,
      "byteOffset": 3145536,
      "componentType": 5126,
      "count": 65532,
      "max": [
        0.9760061502456665,
        0.9802191257476807,
        0.2946004867553711
      ],
      "min": [
        0.10939981788396835,
        -0.9801988005638123,
        -0.05961987376213074
      ],
      "type": "VEC3"
    },
    {
      "bufferView": 2,
      "byteOffset": 3931920,
      "componentType": 5126,
      "count": 65532,
      "max": [
        0.9794978499412537,
        0.9325988292694092,
        1.0
      ],
      "min": [
        -0.9902993440628052,
        -0.9637150764465332,
        -0.371903657913208
      ],
      "type": "VEC3"
    },
    {
      "bufferView": 1,
      "byteOffset": 1048512,
      "componentType": 5126,
      "count": 65532,
      "max": [
        0.988003134727478,
        0.990099310874939
      ],
      "min": [
        0.5537172555923462,
        0.009810118936002254
      ],
      "type": "VEC2"
    },
    {
      "bufferView": 0,
      "byteOffset": 2822688,
      "componentType": 5125,
      "count": 339393,
      "type": "SCALAR"
    },
    {
      "bufferView": 2,
      "byteOffset": 4718304,
      "componentType": 5126,
      "count": 65532,
      "max": [
        0.6635440587997437,
        0.98024982213974,
        0.3417002558708191
      ],
      "min": [
        -0.9803345203399658,
        -0.9777228236198425,
        -0.0478568971157074
      ],
      "type": "VEC3"
    },
    {
      "bufferView": 2,
      "byteOffset": 5504688,
      "componentType": 5126,
      "count": 65532,
      "max": [
        0.9789482951164246,
        0.9416480660438538,
        1.0
      ],
      "min": [
        -0.9821245670318604,
        -0.9636213779449463,
        0.01794539764523506
      ],
      "type": "VEC3"
    },
    {
      "bufferView": 1,
      "byteOffset": 1572768,
      "componentType": 5126,
      "count": 65532,
      "max": [
        0.8316975235939026,
        0.990099310874939
      ],
      "min": [
        0.009497780352830887,
        0.01112449448555708
      ],
      "type": "VEC2"
    },
    {
      "bufferView": 0,
      "byteOffset": 4180260,
      "componentType": 5125,
      "count": 349941,
      "type": "SCALAR"
    },
    {
      "bufferView": 2,
      "byteOffset": 6291072,
      "componentType": 5126,
      "count": 65532,
      "max": [
        0.26805946230888367,
        0.9802106618881226,
        0.4133795201778412
      ],
      "min": [
        -0.9803428649902344,
        -0.9801982045173645,
        0.02200876921415329
      ],
      "type": "VEC3"
    },
    {
      "bufferView": 2,
      "byteOffset": 7077456,
      "componentType": 5126,
      "count": 65532,
      "max": [
        0.9873666763305664,
        0.9759924411773682,
        1.0
      ],
      "min": [
        -0.9896019101142883,
        -0.9886589050292969,
        -0.23795638978481293
      ],
      "type": "VEC3"
    },
    {
      "bufferView": 1,
      "byteOffset": 2097024,
      "componentType": 5126,
      "count": 65532,
      "max": [
        0.633663535118103,
        0.9904471635818481
      ],
      "min": [
        0.009619331918656826,
        0.009870164096355438
      ],
      "type": "VEC2"
    },
    {
      "bufferView": 0,
      "byteOffset": 5580024,
      "componentType": 5125,
      "count": 358395,
      "type": "SCALAR"
    },
    {
      "bufferView": 2,
      "byteOffset": 7863840,
      "componentType": 5126,
      "count": 41202,
      "max": [
        0.9702971577644348,
        0.9802753925323486,
        0.41401028633117676
      ],
      "min": [
        -0.9802289009094238,
        -0.9801998734474182,
        -0.08501464873552322
      ],
      "type": "VEC3"
    },
    {
      "bufferView": 2,
      "byteOffset": 8358264,
      "componentType": 5126,
      "count": 41202,
      "max": [
        0.9806055426597595,
        0.9759924411773682,
        1.0
      ],
      "min": [
        -0.992428183555603,
        -0.9636213779449463,
        0.08450635522603989
      ],
      "type": "VEC3"
    },
    {
      "bufferView": 1,
      "byteOffset": 2621280,
      "componentType": 5126,
      "count": 41202,
      "max": [
        0.9851484894752502,
        0.9902368187904358
      ],
      "min": [
        0.009497780352830887,
        0.009884915314614773
      ],
      "type": "VEC2"
    },
    {
      "bufferView": 0,
      "byteOffset": 7013604,
      "componentType": 5125,
      "count": 128388,
      "type": "SCALAR"
    }
  ],
  "asset": {
    "extras": {
      "author": "Šimon Ustal (https://sketchfab.com/simonustal)",
      "license": "CC-BY-4.0 (http://creativecommons.org/licenses/by/4.0/)",
      "source": "https://sketchfab.com/3d-models/grassy-landscape-with-snow-007846cc3c3942239e7250bc2e90b5ab",
      "title": "Grassy Landscape with Snow"
    },
    "generator": "Sketchfab-12.68.0",
    "version": "2.0"
  },
  "bufferViews": [
    {
      "buffer": 0,
      "byteLength": 7527156,
      "name": "floatBufferViews",
      "target": 34963
    },
    {
      "buffer": 0,
      "byteLength": 2950896,
      "byteOffset": 7527156,
      "byteStride": 8,
      "name": "floatBufferViews",
      "target": 34962
    },
    {
      "buffer": 0,
      "byteLength": 8852688,
      "byteOffset": 10478052,
      "byteStride": 12,
      "name": "floatBufferViews",
      "target": 34962
    }
  ],
  "buffers": [
    {
      "byteLength": 19330740,
      "uri": "scene.bin"
    }
  ],
  "images": [
    {
      "uri": "textures/Material.001_baseColor.png"
    },
    {
      "uri": "textures/Material.001_metallicRoughness.png"
    }
  ],
  "materials": [
    {
      "doubleSided": true,
      "name": "Material.001",
      "occlusionTexture": {
        "index": 1
      },
      "pbrMetallicRoughness": {
        "baseColorTexture": {
          "index": 0
        },
        "metallicFactor": 0.1050729924788258,
        "metallicRoughnessTexture": {
          "index": 1
        },
        "roughnessFactor": 0.8211145618000169
      }
    }
  ],
  "meshes": [
    {
      "name": "Plane_Material.001_0",
      "primitives": [
        {
          "attributes": {
            "NORMAL": 1,
            "POSITION": 0,
            "TEXCOORD_0": 2
          },
          "indices": 3,
          "material": 0,
          "mode": 4
        }
      ]
    },
    {
      "name": "Plane_Material.001_0",
      "primitives": [
        {
          "attributes": {
            "NORMAL": 5,
            "POSITION": 4,
            "TEXCOORD_0": 6
          },
          "indices": 7,
          "material": 0,
          "mode": 4
        }
      ]
    },
    {
      "name": "Plane_Material.001_0",
      "primitives": [
        {
          "attributes": {
            "NORMAL": 9,
            "POSITION": 8,
            "TEXCOORD_0": 10
          },
          "indices": 11,
          "material": 0,
          "mode": 4
        }
      ]
    },
    {
      "name": "Plane_Material.001_0",
      "primitives": [
        {
          "attributes": {
            "NORMAL": 13,
            "POSITION": 12,
            "TEXCOORD_0": 14
          },
          "indices": 15,
          "material": 0,
          "mode": 4
        }
      ]
    },
    {
      "name": "Plane_Material.001_0",
      "primitives": [
        {
          "attributes": {
            "NORMAL": 17,
            "POSITION": 16,
            "TEXCOORD_0": 18
          },
          "indices": 19,
          "material": 0,
          "mode": 4
        }
      ]
    },
    {
      "name": "Plane_Material.001_0",
      "primitives": [
        {
          "attributes": {
            "NORMAL": 21,
            "POSITION": 20,
            "TEXCOORD_0": 22
          },
          "indices": 23,
          "material": 0,
          "mode": 4
        }
      ]
    }
  ],
  "nodes": [
    {
      "children": [
        1
      ],
      "matrix": [
        1.0,
        0.0,
        0.0,
        0.0,
        0.0,
        2.220446049250313e-16,
        -1.0,
        0.0,
        0.0,
        1.0,
        2.220446049250313e-16,
        0.0,
        0.0,
        0.0,
        0.0,
        1.0
      ],
      "name": "Sketchfab_model"
    },
    {
      "children": [
        2
      ],
      "matrix": [
        0.009999999776482582,
        0.0,
        0.0,
        0.0,
        0.0,
        0.0,
        0.009999999776482582,
        0.0,
        0.0,
        -0.009999999776482582,
        0.0,
        0.0,
        0.0,
        0.0,
        0.0,
        1.0
      ],
      "name": "f68869224ed6438f9bf6d4dc7d00753a.fbx"
    },
    {
      "children": [
        3,
        6,
        8
      ],
      "name": "RootNode"
    },
    {
      "children": [
        4
      ],
      "matrix": [
        -29.08647719990347,
        -5.518906457566863,
        -95.51711910171437,
        0.0,
        56.63930913109449,
        79.46723428563203,
        -21.83912397841966,
        0.0,
        77.11008775993375,
        -60.45246356562044,
        -19.98834696773717,
        0.0,
        407.6245422363281,
        590.38623046875,
        -100.54539489746094,
        1.0
      ],
      "name": "Light"
    },
    {
      "children": [
        5
      ],
      "matrix": [
        1.0,
        0.0,
        0.0,
        0.0,
        0.0,
        2.220446049250313e-16,
        1.0,
        0.0,
        0.0,
        -1.0,
        2.220446049250313e-16,
        0.0,
        0.0,
        0.0,
        0.0,
        1.0
      ],
      "name": "Object_4"
    },
    {
      "name": "Object_5"
    },
    {
      "children": [
        7
      ],
      "matrix": [
        -65.15581009765468,
        -44.527143038140764,
        -61.41704928909654,
        0.0,
        -32.40135466989878,
        89.5395708958271,
        -30.542085476036902,
        0.0,
        68.59207001076176,
        1.2755314797120858e-05,
        -72.76761921184276,
        0.0,
        735.88916015625,
        495.8309326171875,
        692.5791015625,
        1.0
      ],
      "name": "Camera"
    },
    {
      "name": "Object_7"
    },
    {
      "children": [
        9,
        10,
        11,
        12,
        13,
        14
      ],
      "matrix": [
        298.89886474609375,
        0.0,
        0.0,
        0.0,
        0.0,
        -4.869680611388072e-05,
        -298.8988647460898,
        0.0,
        0.0,
        243.26083374023116,
        -3.963222030238233e-05,
        0.0,
        0.0,
        0.0,
        0.0,
        1.0
      ],
      "name": "Plane"
    },
    {
      "mesh": 0,
      "name": "Plane_Material.001_0"
    },
    {
      "mesh": 1,
      "name": "Plane_Material.001_0"
    },
    {
      "mesh": 2,
      "name": "Plane_Material.001_0"
    },
    {
      "mesh": 3,
      "name": "Plane_Material.001_0"
    },
    {
      "mesh": 4,
      "name": "Plane_Material.001_0"
    },
    {
      "mesh": 5,
      "name": "Plane_Material.001_0"
    }
  ],
  "samplers": [
    {
      "magFilter": 9729,
      "minFilter": 9987,
      "wrapS": 10497,
      "wrapT": 10497
    }
  ],
  "scene": 0,
  "scenes": [
    {
      "name": "Sketchfab_Scene",
      "nodes": [
        0
      ]
    }
  ],
  "textures": [
    {
      "sampler": 0,
      "source": 0
    },
    {
      "sampler": 0,
      "source": 1
    }
  ]
}
