{
  "accessors": [
    {
      "bufferView": 2,
      "componentType": 5126,
      "count": 3880,
      "max": [
        100.0,
        399.05029296875,
        171.08770751953125
      ],
      "min": [
        -100.0,
        39.4651985168457,
        -76.4263916015625
      ],
      "type": "VEC3"
    },
    {
      "bufferView": 2,
      "byteOffset": 46560,
      "componentType": 5126,
      "count": 3880,
      "max": [
        1.0,
        1.0,
        1.0
      ],
      "min": [
        -1.0,
        -1.0,
        -1.0
      ],
      "type": "VEC3"
    },
    {
      "bufferView": 1,
      "componentType": 5126,
      "count": 3880,
      "max": [
        0.9951980113983154,
        0.9986879825592041
      ],
      "min": [
        0.0013119999784976244,
        0.0013119999784976244
      ],
      "type": "VEC2"
    },
    {
      "bufferView": 0,
      "componentType": 5125,
      "count": 9918,
      "type": "SCALAR"
    },
    {
      "bufferView": 2,
      "byteOffset": 93120,
      "componentType": 5126,
      "count": 64,
      "max": [
        136.3903045654297,
        22.86639976501465,
        260.42449951171875
      ],
      "min": [
        -136.3903045654297,
        1.0348000526428223,
        -128.2794952392578
      ],
      "type": "VEC3"
    },
    {
      "bufferView": 2,
      "byteOffset": 93888,
      "componentType": 5126,
      "count": 64,
      "max": [
        0.5077506303787231,
        1.0,
        0.3318256139755249
      ],
      "min": [
        -0.589031457901001,
        -1.0,
        -0.2811066508293152
      ],
      "type": "VEC3"
    },
    {
      "bufferView": 1,
      "byteOffset": 31040,
      "componentType": 5126,
      "count": 64,
      "max": [
        1.0,
        0.8651599884033203
      ],
      "min": [
        0.0,
        0.0
      ],
      "type": "VEC2"
    },
    {
      "bufferView": 0,
      "byteOffset": 39672,
      "componentType": 5125,
      "count": 180,
      "type": "SCALAR"
    },
    {
      "bufferView": 2,
      "byteOffset": 94656,
      "componentType": 5126,
      "count": 2941,
      "max": [
        147.19309997558594,
        40.25339889526367,
        334.1340026855469
      ],
      "min": [
        -148.0998992919922,
        -0.7961000800132751,
        -139.92999267578125
      ],
      "type": "VEC3"
    },
    {
      "bufferView": 2,
      "byteOffset": 129948,
      "componentType": 5126,
      "count": 2941,
      "max": [
        0.9999881982803345,
        0.9999306797981262,
        0.9999552369117737
      ],
      "min": [
        -0.9999812841415405,
        -0.999977171421051,
        -0.9998676180839539
      ],
      "type": "VEC3"
    },
    {
      "bufferView": 1,
      "byteOffset": 31552,
      "componentType": 5126,
      "count": 2941,
      "max": [
        0.9952120184898376,
        0.9992679953575134
      ],
      "min": [
        0.0007319999858736992,
        0.0007319999858736992
      ],
      "type": "VEC2"
    },
    {
      "bufferView": 0,
      "byteOffset": 40392,
      "componentType": 5125,
      "count": 8484,
      "type": "SCALAR"
    },
    {
      "bufferView": 2,
      "byteOffset": 165240,
      "componentType": 5126,
      "count": 288,
      "max": [
        99.6033935546875,
        364.49609375,
        202.74429321289063
      ],
      "min": [
        -99.7603988647461,
        226.9257049560547,
        -121.37840270996094
      ],
      "type": "VEC3"
    },
    {
      "bufferView": 2,
      "byteOffset": 168696,
      "componentType": 5126,
      "count": 288,
      "max": [
        0.9998978972434998,
        0.9988139867782593,
        0.9821894764900208
      ],
      "min": [
        -0.999734103679657,
        -0.9994642734527588,
        -0.995421290397644
      ],
      "type": "VEC3"
    },
    {
      "bufferView": 1,
      "byteOffset": 55080,
      "componentType": 5126,
      "count": 288,
      "max": [
        0.9582359790802002,
        0.9990479946136475
      ],
      "min": [
        0.0009519999730400741,
        0.0009519999730400741
      ],
      "type": "VEC2"
    },
    {
      "bufferView": 0,
      "byteOffset": 74328,
      "componentType": 5125,
      "count": 1320,
      "type": "SCALAR"
    },
    {
      "bufferView": 2,
      "byteOffset": 172152,
      "componentType": 5126,
      "count": 2380,
      "max": [
        91.6968002319336,
        349.76971435546875,
        200.047607421875
      ],
      "min": [
        -91.6968002319336,
        222.03199768066406,
        -112.68719482421875
      ],
      "type": "VEC3"
    },
    {
      "bufferView": 2,
      "byteOffset": 200712,
      "componentType": 5126,
      "count": 2380,
      "max": [
        0.7156907916069031,
        0.956143856048584,
        0.7387266755104065
      ],
      "min": [
        -0.7156907916069031,
        -0.9643869996070862,
        -0.7303956747055054
      ],
      "type": "VEC3"
    },
    {
      "bufferView": 1,
      "byteOffset": 57384,
      "componentType": 5126,
      "count": 2380,
      "max": [
        0.990680992603302,
        0.9990519881248474
      ],
      "min": [
        0.0009480001172050834,
        0.0009480001172050834
      ],
      "type": "VEC2"
    },
    {
      "bufferView": 0,
      "byteOffset": 79608,
      "componentType": 5125,
      "count": 6216,
      "type": "SCALAR"
    },
    {
      "bufferView": 2,
      "byteOffset": 229272,
      "componentType": 5126,
      "count": 60,
      "max": [
        24.202800750732422,
        180.67359924316406,
        163.91099548339844
      ],
      "min": [
        -26.02389907836914,
        146.6988067626953,
        163.81100463867188
      ],
      "type": "VEC3"
    },
    {
      "bufferView": 2,
      "byteOffset": 229992,
      "componentType": 5126,
      "count": 60,
      "max": [
        0.03137865662574768,
        0.019301943480968475,
        0.9999514222145081
      ],
      "min": [
        -0.030969958752393723,
        -0.022910529747605324,
        -0.9999514222145081
      ],
      "type": "VEC3"
    },
    {
      "bufferView": 1,
      "byteOffset": 76424,
      "componentType": 5126,
      "count": 60,
      "max": [
        0.3510720133781433,
        0.9999409914016724
      ],
      "min": [
        5.9000009059673175e-05,
        5.9000009059673175e-05
      ],
      "type": "VEC2"
    },
    {
      "bufferView": 0,
      "byteOffset": 104472,
      "componentType": 5125,
      "count": 336,
      "type": "SCALAR"
    },
    {
      "bufferView": 2,
      "byteOffset": 230712,
      "componentType": 5126,
      "count": 1356,
      "max": [
        76.38569641113281,
        200.9055938720703,
        166.03269958496094
      ],
      "min": [
        -76.44210815429688,
        175.49110412597656,
        147.35159301757813
      ],
      "type": "VEC3"
    },
    {
      "bufferView": 2,
      "byteOffset": 246984,
      "componentType": 5126,
      "count": 1356,
      "max": [
        0.935649037361145,
        0.9998028874397278,
        0.9960083961486816
      ],
      "min": [
        -0.9997279047966003,
        -0.9949517846107483,
        -0.9950385689735413
      ],
      "type": "VEC3"
    },
    {
      "bufferView": 1,
      "byteOffset": 76904,
      "componentType": 5126,
      "count": 1356,
      "max": [
        1.0,
        1.0
      ],
      "min": [
        0.0,
        0.0
      ],
      "type": "VEC2"
    },
    {
      "bufferView": 0,
      "byteOffset": 105816,
      "componentType": 5125,
      "count": 5616,
      "type": "SCALAR"
    },
    {
      "bufferView": 2,
      "byteOffset": 263256,
      "componentType": 5126,
      "count": 2208,
      "max": [
        45.06100082397461,
        185.67750549316406,
        170.2653045654297
      ],
      "min": [
        -45.06100082397461,
        148.9718017578125,
        158.38720703125
      ],
      "type": "VEC3"
    },
    {
      "bufferView": 2,
      "byteOffset": 289752,
      "componentType": 5126,
      "count": 2208,
      "max": [
        0.9899573922157288,
        0.467216432094574,
        0.9912441372871399
      ],
      "min": [
        -0.9899573922157288,
        -0.3917034864425659,
        -0.989016592502594
      ],
      "type": "VEC3"
    },
    {
      "bufferView": 1,
      "byteOffset": 87752,
      "componentType": 5126,
      "count": 2208,
      "max": [
        1.0,
        0.9812510013580322
      ],
      "min": [
        0.0,
        0.0
      ],
      "type": "VEC2"
    },
    {
      "bufferView": 0,
      "byteOffset": 128280,
      "componentType": 5125,
      "count": 5184,
      "type": "SCALAR"
    }
  ],
  "asset": {
    "extras": {
      "author": "yankobe (https://sketchfab.com/yankobe.do)",
      "license": "CC-BY-4.0 (http://creativecommons.org/licenses/by/4.0/)",
      "source": "https://sketchfab.com/3d-models/japan-temple-31f068b008824beabc45b041b608afce",
      "title": "Japan Temple"
    },
    "generator": "Sketchfab-15.55.0",
    "version": "2.0"
  },
  "bufferViews": [
    {
      "buffer": 0,
      "byteLength": 149016,
      "name": "floatBufferViews",
      "target": 34963
    },
    {
      "buffer": 0,
      "byteLength": 105416,
      "byteOffset": 149016,
      "byteStride": 8,
      "name": "floatBufferViews",
      "target": 34962
    },
    {
      "buffer": 0,
      "byteLength": 316248,
      "byteOffset": 254432,
      "byteStride": 12,
      "name": "floatBufferViews",
      "target": 34962
    }
  ],
  "buffers": [
    {
      "byteLength": 570680,
      "uri": "scene.bin"
    }
  ],
  "images": [
    {
      "uri": "textures/MA_Structure_baseColor.jpeg"
    },
    {
      "uri": "textures/MA_Ground_baseColor.jpeg"
    },
    {
      "uri": "textures/MA_Stone_baseColor.jpeg"
    },
    {
      "uri": "textures/MA_Roof_baseColor.jpeg"
    },
    {
      "uri": "textures/MA_Taruki_baseColor.jpeg"
    },
    {
      "uri": "textures/Shide_baseColor.jpeg"
    },
    {
      "uri": "textures/Shimenawa_baseColor.jpeg"
    }
  ],
  "materials": [
    {
      "doubleSided": true,
      "name": "MA_Structure",
      "pbrMetallicRoughness": {
        "baseColorTexture": {
          "index": 0
        },
        "metallicFactor": 0.0,
        "roughnessFactor": 0.9577051494623774
      }
    },
    {
      "doubleSided": true,
      "name": "MA_Ground",
      "pbrMetallicRoughness": {
        "baseColorTexture": {
          "index": 1
        },
        "metallicFactor": 0.0,
        "roughnessFactor": 0.9577051494623774
      }
    },
    {
      "doubleSided": true,
      "name": "MA_Stone",
      "pbrMetallicRoughness": {
        "baseColorTexture": {
          "index": 2
        },
        "metallicFactor": 0.0,
        "roughnessFactor": 0.9577051494623774
      }
    },
    {
      "doubleSided": true,
      "name": "MA_Roof",
      "pbrMetallicRoughness": {
        "baseColorTexture": {
          "index": 3
        },
        "metallicFactor": 0.0,
        "roughnessFactor": 0.9577051494623774
      }
    },
    {
      "doubleSided": true,
      "name": "MA_Taruki",
      "pbrMetallicRoughness": {
        "baseColorTexture": {
          "index": 4
        },
        "metallicFactor": 0.0,
        "roughnessFactor": 0.9577051494623774
      }
    },
    {
      "doubleSided": true,
      "name": "Shide",
      "pbrMetallicRoughness": {
        "baseColorTexture": {
          "index": 5
        },
        "metallicFactor": 0.0,
        "roughnessFactor": 0.9577051494623774
      }
    },
    {
      "doubleSided": true,
      "name": "Shimenawa",
      "pbrMetallicRoughness": {
        "baseColorTexture": {
          "index": 6
        },
        "metallicFactor": 0.0,
        "roughnessFactor": 0.9577051494623774
      }
    },
    {
      "doubleSided": true,
      "name": "Shimenawa_Fusa",
      "pbrMetallicRoughness": {
        "baseColorTexture": {
          "index": 6
        },
        "metallicFactor": 0.0,
        "roughnessFactor": 0.9577051494623774
      }
    }
  ],
  "meshes": [
    {
      "name": "Massya.Shape_MA_Structure_0",
      "primitives": [
        {
          "attributes": {
            "NORMAL": 1,
            "POSITION": 0,
            "TEXCOORD_0": 2
          },
          "indices": 3,
          "material": 0,
          "mode": 4
        }
      ]
    },
    {
      "name": "Massya.Shape_MA_Ground_0",
      "primitives": [
        {
          "attributes": {
            "NORMAL": 5,
            "POSITION": 4,
            "TEXCOORD_0": 6
          },
          "indices": 7,
          "material": 1,
          "mode": 4
        }
      ]
    },
    {
      "name": "Massya.Shape_MA_Stone_0",
      "primitives": [
        {
          "attributes": {
            "NORMAL": 9,
            "POSITION": 8,
            "TEXCOORD_0": 10
          },
          "indices": 11,
          "material": 2,
          "mode": 4
        }
      ]
    },
    {
      "name": "Massya.Shape_MA_Roof_0",
      "primitives": [
        {
          "attributes": {
            "NORMAL": 13,
            "POSITION": 12,
            "TEXCOORD_0": 14
          },
          "indices": 15,
          "material": 3,
          "mode": 4
        }
      ]
    },
    {
      "name": "Massya.Shape_MA_Taruki_0",
      "primitives": [
        {
          "attributes": {
            "NORMAL": 17,
            "POSITION": 16,
            "TEXCOORD_0": 18
          },
          "indices": 19,
          "material": 4,
          "mode": 4
        }
      ]
    },
    {
      "name": "Massya.Shape_Shide_0",
      "primitives": [
        {
          "attributes": {
            "NORMAL": 21,
            "POSITION": 20,
            "TEXCOORD_0": 22
          },
          "indices": 23,
          "material": 5,
          "mode": 4
        }
      ]
    },
    {
      "name": "Massya.Shape_Shimenawa_0",
      "primitives": [
        {
          "attributes": {
            "NORMAL": 25,
            "POSITION": 24,
            "TEXCOORD_0": 26
          },
          "indices": 27,
          "material": 6,
          "mode": 4
        }
      ]
    },
    {
      "name": "Massya.Shape_Shimenawa_Fusa_0",
      "primitives": [
        {
          "attributes": {
            "NORMAL": 29,
            "POSITION": 28,
            "TEXCOORD_0": 30
          },
          "indices": 31,
          "material": 7,
          "mode": 4
        }
      ]
    }
  ],
  "nodes": [
    {
      "children": [
        1
      ],
      "matrix": [
        1.0,
        0.0,
        0.0,
        0.0,
        0.0,
        2.220446049250313e-16,
        -1.0,
        0.0,
        0.0,
        1.0,
        2.220446049250313e-16,
        0.0,
        0.0,
        0.0,
        0.0,
        1.0
      ],
      "name": "Sketchfab_model"
    },
    {
      "children": [
        2
      ],
      "matrix": [
        0.009999999776482582,
        0.0,
        0.0,
        0.0,
        0.0,
        0.0,
        0.009999999776482582,
        0.0,
        0.0,
        -0.009999999776482582,
        0.0,
        0.0,
        0.0,
        0.0,
        0.0,
        1.0
      ],
      "name": "Massya.fbx"
    },
    {
      "children": [
        3
      ],
      "name": "RootNode"
    },
    {
      "children": [
        4
      ],
      "name": "Massya"
    },
    {
      "children": [
        5,
        6,
        7,
        8,
        9,
        10,
        11,
        12
      ],
      "name": "Massya.Shape"
    },
    {
      "mesh": 0,
      "name": "Massya.Shape_MA_Structure_0"
    },
    {
      "mesh": 1,
      "name": "Massya.Shape_MA_Ground_0"
    },
    {
      "mesh": 2,
      "name": "Massya.Shape_MA_Stone_0"
    },
    {
      "mesh": 3,
      "name": "Massya.Shape_MA_Roof_0"
    },
    {
      "mesh": 4,
      "name": "Massya.Shape_MA_Taruki_0"
    },
    {
      "mesh": 5,
      "name": "Massya.Shape_Shide_0"
    },
    {
      "mesh": 6,
      "name": "Massya.Shape_Shimenawa_0"
    },
    {
      "mesh": 7,
      "name": "Massya.Shape_Shimenawa_Fusa_0"
    }
  ],
  "samplers": [
    {
      "magFilter": 9729,
      "minFilter": 9987,
      "wrapS": 10497,
      "wrapT": 10497
    }
  ],
  "scene": 0,
  "scenes": [
    {
      "name": "Sketchfab_Scene",
      "nodes": [
        0
      ]
    }
  ],
  "textures": [
    {
      "sampler": 0,
      "source": 0
    },
    {
      "sampler": 0,
      "source": 1
    },
    {
      "sampler": 0,
      "source": 2
    },
    {
      "sampler": 0,
      "source": 3
    },
    {
      "sampler": 0,
      "source": 4
    },
    {
      "sampler": 0,
      "source": 5
    },
    {
      "sampler": 0,
      "source": 6
    }
  ]
}
