{
  "accessors": [
    {
      "bufferView": 2,
      "componentType": 5126,
      "count": 65533,
      "max": [
        2485.63525390625,
        2435.966796875,
        2541.060302734375
      ],
      "min": [
        -2498.08740234375,
        -2560.017333984375,
        -1902.102294921875
      ],
      "type": "VEC3"
    },
    {
      "bufferView": 2,
      "byteOffset": 786396,
      "componentType": 5126,
      "count": 65533,
      "max": [
        1.0,
        1.0,
        1.0
      ],
      "min": [
        -1.0,
        -1.0,
        -1.0
      ],
      "type": "VEC3"
    },
    {
      "bufferView": 3,
      "componentType": 5126,
      "count": 65533,
      "max": [
        1.0,
        1.0,
        1.0,
        1.0
      ],
      "min": [
        -1.0,
        -1.0,
        -1.0,
        -1.0
      ],
      "type": "VEC4"
    },
    {
      "bufferView": 1,
      "componentType": 5126,
      "count": 65533,
      "max": [
        0.9990159869194031,
        0.999021589756012
      ],
      "min": [
        0.0009765625,
        0.0009765625
      ],
      "type": "VEC2"
    },
    {
      "bufferView": 0,
      "componentType": 5125,
      "count": 175614,
      "type": "SCALAR"
    },
    {
      "bufferView": 2,
      "byteOffset": 1572792,
      "componentType": 5126,
      "count": 58247,
      "max": [
        2497.8955078125,
        2435.966796875,
        2736.1552734375
      ],
      "min": [
        -2498.08740234375,
        -2560.017333984375,
        -1862.17529296875
      ],
      "type": "VEC3"
    },
    {
      "bufferView": 2,
      "byteOffset": 2271756,
      "componentType": 5126,
      "count": 58247,
      "max": [
        1.0,
        1.0,
        1.0
      ],
      "min": [
        -1.0,
        -1.0,
        -1.0
      ],
      "type": "VEC3"
    },
    {
      "bufferView": 3,
      "byteOffset": 1048528,
      "componentType": 5126,
      "count": 58247,
      "max": [
        1.0,
        1.0,
        1.0,
        1.0
      ],
      "min": [
        -1.0,
        -1.0,
        -1.0,
        -1.0
      ],
      "type": "VEC4"
    },
    {
      "bufferView": 1,
      "byteOffset": 524264,
      "componentType": 5126,
      "count": 58247,
      "max": [
        0.9990159869194031,
        0.9990234375
      ],
      "min": [
        0.0009765625,
        0.0009765625
      ],
      "type": "VEC2"
    },
    {
      "bufferView": 0,
      "byteOffset": 702456,
      "componentType": 5125,
      "count": 143997,
      "type": "SCALAR"
    }
  ],
  "asset": {
    "extras": {
      "author": "AngelNebesniy (https://sketchfab.com/AngelNebesniy)",
      "license": "CC-BY-4.0 (http://creativecommons.org/licenses/by/4.0/)",
      "source": "https://sketchfab.com/3d-models/chinese-gazebo-ac58fa82394e43f895eb64e50ffbd7a7",
      "title": "Chinese gazebo"
    },
    "generator": "Sketchfab-13.7.0",
    "version": "2.0"
  },
  "bufferViews": [
    {
      "buffer": 0,
      "byteLength": 1278444,
      "name": "floatBufferViews",
      "target": 34963
    },
    {
      "buffer": 0,
      "byteLength": 990240,
      "byteOffset": 1278444,
      "byteStride": 8,
      "name": "floatBufferViews",
      "target": 34962
    },
    {
      "buffer": 0,
      "byteLength": 2970720,
      "byteOffset": 2268684,
      "byteStride": 12,
      "name": "floatBufferViews",
      "target": 34962
    },
    {
      "buffer": 0,
      "byteLength": 1980480,
      "byteOffset": 5239404,
      "byteStride": 16,
      "name": "floatBufferViews",
      "target": 34962
    }
  ],
  "buffers": [
    {
      "byteLength": 7219884,
      "uri": "scene.bin"
    }
  ],
  "images": [
    {
      "uri": "textures/Material_baseColor.png"
    },
    {
      "uri": "textures/Material_metallicRoughness.png"
    },
    {
      "uri": "textures/Material_normal.png"
    }
  ],
  "materials": [
    {
      "alphaMode": "BLEND",
      "doubleSided": true,
      "name": "Material",
      "normalTexture": {
        "index": 2
      },
      "occlusionTexture": {
        "index": 1,
        "strength": 0.2971437627238483
      },
      "pbrMetallicRoughness": {
        "baseColorTexture": {
          "index": 0
        },
        "metallicFactor": 0.0,
        "metallicRoughnessTexture": {
          "index": 1
        }
      }
    }
  ],
  "meshes": [
    {
      "name": "Plane008 l_Material_0",
      "primitives": [
        {
          "attributes": {
            "NORMAL": 1,
            "POSITION": 0,
            "TANGENT": 2,
            "TEXCOORD_0": 3
          },
          "indices": 4,
          "material": 0,
          "mode": 4
        }
      ]
    },
    {
      "name": "Plane008 l_Material_0",
      "primitives": [
        {
          "attributes": {
            "NORMAL": 6,
            "POSITION": 5,
            "TANGENT": 7,
            "TEXCOORD_0": 8
          },
          "indices": 9,
          "material": 0,
          "mode": 4
        }
      ]
    }
  ],
  "nodes": [
    {
      "children": [
        1
      ],
      "matrix": [
        1.0,
        0.0,
        0.0,
        0.0,
        0.0,
        2.220446049250313e-16,
        -1.0,
        0.0,
        0.0,
        1.0,
        2.220446049250313e-16,
        0.0,
        0.0,
        0.0,
        0.0,
        1.0
      ],
      "name": "Sketchfab_model"
    },
    {
      "children": [
        2
      ],
      "matrix": [
        0.009999999776482582,
        0.0,
        0.0,
        0.0,
        0.0,
        0.0,
        0.009999999776482582,
        0.0,
        0.0,
        -0.009999999776482582,
        0.0,
        0.0,
        0.0,
        0.0,
        0.0,
        1.0
      ],
      "name": "d37dd505660d4d2c888f6d39beb39c42.fbx"
    },
    {
      "children": [
        3
      ],
      "name": "RootNode"
    },
    {
      "children": [
        4,
        5
      ],
      "matrix": [
        0.09659261319058483,
        -2.2004977862472915e-09,
        -0.025881796209638912,
        0.0,
        -0.025881796209638933,
        -1.570244924171094e-08,
        -0.09659261319058357,
        0.0,
        -1.93855756560488e-09,
        0.10000000149011487,
        -1.5736934168250673e-08,
        0.0,
        -1.5960931777954102,
        -41.7027702331543,
        -5.99365234375,
        1.0
      ],
      "name": "Plane008 l"
    },
    {
      "mesh": 0,
      "name": "Plane008 l_Material_0"
    },
    {
      "mesh": 1,
      "name": "Plane008 l_Material_0"
    }
  ],
  "samplers": [
    {
      "magFilter": 9729,
      "minFilter": 9987,
      "wrapS": 10497,
      "wrapT": 10497
    }
  ],
  "scene": 0,
  "scenes": [
    {
      "name": "Sketchfab_Scene",
      "nodes": [
        0
      ]
    }
  ],
  "textures": [
    {
      "sampler": 0,
      "source": 0
    },
    {
      "sampler": 0,
      "source": 1
    },
    {
      "sampler": 0,
      "source": 2
    }
  ]
}
