{
  "accessors": [
    {
      "bufferView": 2,
      "componentType": 5126,
      "count": 65532,
      "max": [
        14130.830078125,
        2285.8994140625,
        13340.6494140625
      ],
      "min": [
        7052.5205078125,
        36.099609375,
        7084.14990234375
      ],
      "type": "VEC3"
    },
    {
      "bufferView": 2,
      "byteOffset": 786384,
      "componentType": 5126,
      "count": 65532,
      "max": [
        0.9997877478599548,
        0.8742756247520447,
        0.9726664423942566
      ],
      "min": [
        -0.9967859983444214,
        -0.9999867081642151,
        -0.9970160722732544
      ],
      "type": "VEC3"
    },
    {
      "bufferView": 1,
      "componentType": 5126,
      "count": 65532,
      "max": [
        0.9979169964790344,
        0.9969580173492432
      ],
      "min": [
        0.05956849828362465,
        0.05397719889879227
      ],
      "type": "VEC2"
    },
    {
      "bufferView": 0,
      "componentType": 5125,
      "count": 349884,
      "type": "SCALAR"
    },
    {
      "bufferView": 2,
      "byteOffset": 1572768,
      "componentType": 5126,
      "count": 65532,
      "max": [
        18301.37109375,
        4623.3994140625,
        17536.80859375
      ],
      "min": [
        0.0,
        0.0,
        0.0
      ],
      "type": "VEC3"
    },
    {
      "bufferView": 2,
      "byteOffset": 2359152,
      "componentType": 5126,
      "count": 65532,
      "max": [
        0.9950905442237854,
        0.9728291630744934,
        0.9981516003608704
      ],
      "min": [
        -0.9633985161781311,
        -0.9999964833259583,
        -0.9997904896736145
      ],
      "type": "VEC3"
    },
    {
      "bufferView": 1,
      "byteOffset": 524256,
      "componentType": 5126,
      "count": 65532,
      "max": [
        0.9957020282745361,
        0.9961940050125122
      ],
      "min": [
        0.0019117699703201652,
        0.0019117799820378423
      ],
      "type": "VEC2"
    },
    {
      "bufferView": 0,
      "byteOffset": 1399536,
      "componentType": 5125,
      "count": 319560,
      "type": "SCALAR"
    },
    {
      "bufferView": 2,
      "byteOffset": 3145536,
      "componentType": 5126,
      "count": 65532,
      "max": [
        21019.1015625,
        6583.599609375,
        21340.169921875
      ],
      "min": [
        1.0,
        0.0,
        68.7001953125
      ],
      "type": "VEC3"
    },
    {
      "bufferView": 2,
      "byteOffset": 3931920,
      "componentType": 5126,
      "count": 65532,
      "max": [
        0.9706006646156311,
        0.9627188444137573,
        0.9266074895858765
      ],
      "min": [
        -0.8371447920799255,
        -0.9999905228614807,
        -0.8928934931755066
      ],
      "type": "VEC3"
    },
    {
      "bufferView": 1,
      "byteOffset": 1048512,
      "componentType": 5126,
      "count": 65532,
      "max": [
        0.9977729916572571,
        0.9980589747428894
      ],
      "min": [
        0.0019117799820378423,
        0.0019117799820378423
      ],
      "type": "VEC2"
    },
    {
      "bufferView": 0,
      "byteOffset": 2677776,
      "componentType": 5125,
      "count": 314289,
      "type": "SCALAR"
    },
    {
      "bufferView": 2,
      "byteOffset": 4718304,
      "componentType": 5126,
      "count": 32136,
      "max": [
        14662.6904296875,
        2367.5,
        14538.19921875
      ],
      "min": [
        72.6005859375,
        366.19921875,
        2598.580078125
      ],
      "type": "VEC3"
    },
    {
      "bufferView": 2,
      "byteOffset": 5103936,
      "componentType": 5126,
      "count": 32136,
      "max": [
        0.9993009567260742,
        0.8917400240898132,
        0.991069495677948
      ],
      "min": [
        -0.9458198547363281,
        -0.9999929070472717,
        -0.9926893711090088
      ],
      "type": "VEC3"
    },
    {
      "bufferView": 1,
      "byteOffset": 1572768,
      "componentType": 5126,
      "count": 32136,
      "max": [
        0.9977099895477295,
        0.9980369806289673
      ],
      "min": [
        0.0019117799820378423,
        0.0019117799820378423
      ],
      "type": "VEC2"
    },
    {
      "bufferView": 0,
      "byteOffset": 3934932,
      "componentType": 5125,
      "count": 138201,
      "type": "SCALAR"
    }
  ],
  "asset": {
    "extras": {
      "author": "Rafael Kenji Horota (https://sketchfab.com/Rafael.Kenji.Horota)",
      "license": "CC-BY-4.0 (http://creativecommons.org/licenses/by/4.0/)",
      "source": "https://sketchfab.com/3d-models/mount-fuji-honshu-japan-b081cb6aed1043cbab1818e071c5b3e3",
      "title": "Mount Fuji - Honshu, Japan"
    },
    "generator": "Sketchfab-12.59.0",
    "version": "2.0"
  },
  "bufferViews": [
    {
      "buffer": 0,
      "byteLength": 4487736,
      "name": "floatBufferViews",
      "target": 34963
    },
    {
      "buffer": 0,
      "byteLength": 1829856,
      "byteOffset": 4487736,
      "byteStride": 8,
      "name": "floatBufferViews",
      "target": 34962
    },
    {
      "buffer": 0,
      "byteLength": 5489568,
      "byteOffset": 6317592,
      "byteStride": 12,
      "name": "floatBufferViews",
      "target": 34962
    }
  ],
  "buffers": [
    {
      "byteLength": 11807160,
      "uri": "scene.bin"
    }
  ],
  "images": [
    {
      "uri": "textures/texture_baseColor.jpeg"
    }
  ],
  "materials": [
    {
      "doubleSided": true,
      "name": "texture",
      "pbrMetallicRoughness": {
        "baseColorTexture": {
          "index": 0
        },
        "metallicFactor": 0.0
      }
    }
  ],
  "meshes": [
    {
      "name": "Object_0",
      "primitives": [
        {
          "attributes": {
            "NORMAL": 1,
            "POSITION": 0,
            "TEXCOORD_0": 2
          },
          "indices": 3,
          "material": 0,
          "mode": 4
        }
      ]
    },
    {
      "name": "Object_1",
      "primitives": [
        {
          "attributes": {
            "NORMAL": 5,
            "POSITION": 4,
            "TEXCOORD_0": 6
          },
          "indices": 7,
          "material": 0,
          "mode": 4
        }
      ]
    },
    {
      "name": "Object_2",
      "primitives": [
        {
          "attributes": {
            "NORMAL": 9,
            "POSITION": 8,
            "TEXCOORD_0": 10
          },
          "indices": 11,
          "material": 0,
          "mode": 4
        }
      ]
    },
    {
      "name": "Object_3",
      "primitives": [
        {
          "attributes": {
            "NORMAL": 13,
            "POSITION": 12,
            "TEXCOORD_0": 14
          },
          "indices": 15,
          "material": 0,
          "mode": 4
        }
      ]
    }
  ],
  "nodes": [
    {
      "children": [
        1
      ],
      "matrix": [
        0.06436779618820188,
        0.009841187655148409,
        0.00039854842051676104,
        0.0,
        0.009804128276734714,
        -0.06376846531844782,
        -0.008813775505289626,
        0.0,
        -0.0009417390210387164,
        0.008772377832400827,
        -0.06451650721733504,
        0.0,
        -2083.258056640625,
        12743.242187500004,
        -12727.111328124996,
        1.0
      ],
      "name": "Sketchfab_model"
    },
    {
      "children": [
        2
      ],
      "matrix": [
        1.0,
        0.0,
        0.0,
        0.0,
        0.0,
        1.0,
        0.0,
        0.0,
        0.0,
        0.0,
        1.0,
        0.0,
        -10028.7001953125,
        10504.400390625,
        -11472.7998046875,
        1.0
      ],
      "name": "skfb_offset"
    },
    {
      "children": [
        3,
        4,
        5,
        6
      ],
      "name": "Object_2"
    },
    {
      "mesh": 0,
      "name": "Object_3"
    },
    {
      "mesh": 1,
      "name": "Object_4"
    },
    {
      "mesh": 2,
      "name": "Object_5"
    },
    {
      "mesh": 3,
      "name": "Object_6"
    }
  ],
  "samplers": [
    {
      "magFilter": 9729,
      "minFilter": 9987,
      "wrapS": 10497,
      "wrapT": 10497
    }
  ],
  "scene": 0,
  "scenes": [
    {
      "name": "Sketchfab_Scene",
      "nodes": [
        0
      ]
    }
  ],
  "textures": [
    {
      "sampler": 0,
      "source": 0
    }
  ]
}
